<svg version="1.1" xmlns="http://www.w3.org/2000/svg" viewBox="0 0 386.56183248714615 386.56183248714615" width="773.1236649742923" height="773.1236649742923">
  <!-- svg-source:excalidraw -->
  <rect x="0" y="0" width="386.56183248714615" height="386.56183248714615" fill="rgba(0,0,0,0)"></rect><g stroke-linecap="round" transform="translate(10 10) rotate(0 183.28091624357307 183.28091624357307)"><path d="M32 0 C150.37 2.13, 265.69 -1.62, 334.56 0 M32 0 C99.25 0.42, 167.13 2.25, 334.56 0 M334.56 0 C359.49 3.84, 366.78 7.02, 366.56 32 M334.56 0 C357.94 2.66, 366.37 15.26, 366.56 32 M366.56 32 C365.88 143.99, 364.05 250.63, 366.56 334.56 M366.56 32 C372.2 114.79, 369.39 200.44, 366.56 334.56 M366.56 334.56 C366.51 355.92, 354.18 363.32, 334.56 366.56 M366.56 334.56 C363.04 354.26, 356.1 368.88, 334.56 366.56 M334.56 366.56 C261.34 366.07, 181.78 361.86, 32 366.56 M334.56 366.56 C260.27 365.42, 185.15 365.32, 32 366.56 M32 366.56 C8.71 369.72, 0.18 354.85, 0 334.56 M32 366.56 C14.97 366.64, 2.4 354.6, 0 334.56 M0 334.56 C-2.37 219.77, -3.53 99.5, 0 32 M0 334.56 C-4.21 269.14, -2.68 202.43, 0 32 M0 32 C-1.77 6.96, 8.64 1.68, 32 0 M0 32 C-2.15 9.61, 12.41 2.67, 32 0" stroke="#1e1e1e" stroke-width="2" fill="none"></path></g></svg>