<svg version="1.1" xmlns="http://www.w3.org/2000/svg" viewBox="0 0 325.8928750261522 177.65629539435372" width="651.7857500523044" height="355.31259078870744">
  <!-- svg-source:excalidraw -->

  <rect x="0" y="0" width="325.8928750261522" height="177.65629539435372" fill="rgba(0,0,0,0)"></rect><g stroke-linecap="round" transform="translate(10 10) rotate(0 152.9464375130761 78.82814769717686)"><path d="M32 0 C102.95 0.82, 172.03 1.09, 273.89 0 M273.89 0 C294.23 -0.98, 306.9 12.28, 305.89 32 M305.89 32 C306.32 54.61, 306.06 76.75, 305.89 125.66 M305.89 125.66 C304.79 147.78, 295.5 157.81, 273.89 157.66 M273.89 157.66 C202.95 154.14, 134.64 155.44, 32 157.66 M32 157.66 C10.19 159.18, 1.55 147.47, 0 125.66 M0 125.66 C-0.32 102, 1.07 80.36, 0 32 M0 32 C-1.76 10.26, 11.61 1.93, 32 0" stroke="#1e1e1e" stroke-width="2.5" fill="none" stroke-dasharray="8 10"></path></g></svg>