<svg version="1.1" xmlns="http://www.w3.org/2000/svg" viewBox="0 0 188.55488372600348 93.29856929390809" width="377.10976745200696" height="186.59713858781618">
  <!-- svg-source:excalidraw -->
  <rect x="0" y="0" width="188.55488372600348" height="93.29856929390809" fill="rgba(0,0,0,0)"></rect><g stroke-linecap="round" transform="translate(12.966196110549845 12.898588331649421) rotate(0 82.79434380772682 35.19999048112933)"><path d="M4.68 4.07 C4.68 4.07, 4.68 4.07, 4.68 4.07 M4.68 4.07 C4.68 4.07, 4.68 4.07, 4.68 4.07 M0.23 21.4 C9.96 16.83, 15.52 3.78, 18.6 0.26 M0.23 21.4 C4.44 13.26, 9.97 8.68, 18.6 0.26 M0.36 33.44 C9.56 26.96, 18.94 11.6, 28.57 0.98 M0.36 33.44 C9.7 22.25, 21.34 9.53, 28.57 0.98 M0.49 45.48 C10.95 29.64, 27.05 19.91, 39.2 0.95 M0.49 45.48 C9.59 34.98, 20.29 21.56, 39.2 0.95 M0.62 57.52 C10.6 41.27, 23.97 31.27, 49.83 0.92 M0.62 57.52 C21.51 35.83, 38.83 12.38, 49.83 0.92 M4.69 65.03 C23.27 44.78, 44.18 16.93, 60.46 0.88 M4.69 65.03 C25.62 43.22, 46.01 19.69, 60.46 0.88 M11.39 69.53 C23.07 52.78, 36.43 36.23, 71.09 0.85 M11.39 69.53 C25.24 55.76, 35.27 41.81, 71.09 0.85 M22.02 69.49 C43.57 44.75, 56.77 23.82, 81.72 0.81 M22.02 69.49 C38.75 51.45, 52.57 33.6, 81.72 0.81 M32.65 69.46 C52.54 46.54, 69.48 24.76, 91.69 1.53 M32.65 69.46 C46.07 51.21, 62.76 33.55, 91.69 1.53 M43.28 69.42 C57.84 48.74, 77.75 28.42, 102.32 1.5 M43.28 69.42 C66.18 46.19, 87.99 20.83, 102.32 1.5 M53.25 70.14 C70.51 51.38, 94.84 24.29, 112.95 1.46 M53.25 70.14 C73.33 48.41, 90.55 28.16, 112.95 1.46 M63.88 70.11 C89.07 40.5, 110.17 14.74, 123.58 1.43 M63.88 70.11 C77.63 58.06, 87.94 42.79, 123.58 1.43 M74.51 70.07 C90.24 43.33, 112.43 21.19, 134.21 1.39 M74.51 70.07 C92.55 49.01, 107.4 30.6, 134.21 1.39 M85.14 70.04 C105.5 42.89, 130.84 21.17, 144.84 1.36 M85.14 70.04 C99.89 52, 117.51 35.15, 144.84 1.36 M95.77 70 C114.68 49.28, 132.72 23.94, 155.47 1.33 M95.77 70 C117.89 42.62, 137.7 19.43, 155.47 1.33 M106.4 69.97 C121.01 58.18, 130.9 38.04, 162.17 5.82 M106.4 69.97 C120.37 55.58, 136.03 37.71, 162.17 5.82 M116.38 70.69 C128.57 53.56, 142.84 37.29, 165.58 14.09 M116.38 70.69 C128.57 55.97, 140.85 41.72, 165.58 14.09 M127.01 70.66 C133.41 61.95, 150.44 42.36, 165.71 26.13 M127.01 70.66 C141.45 55.95, 157.15 38.53, 165.71 26.13 M137.64 70.62 C145.75 59.73, 147.84 54.18, 165.19 38.92 M137.64 70.62 C147.9 59.35, 157.02 48.8, 165.19 38.92 M148.27 70.59 C152.45 66.76, 154.84 65.81, 165.32 50.96 M148.27 70.59 C150.73 66.94, 153.65 61.34, 165.32 50.96 M4.69 66.25 C4.69 66.25, 4.69 66.25, 4.69 66.25 M4.69 66.25 C4.69 66.25, 4.69 66.25, 4.69 66.25 M19.75 68.74 C12.24 64.86, 5.54 58.6, 0.88 52.34 M19.75 68.74 C12.97 63.6, 7.14 56.59, 0.88 52.34 M31.79 68.61 C18.94 56.6, 9.77 50.37, 0.84 41.71 M31.79 68.61 C22.06 62.55, 13.26 52.27, 0.84 41.71 M44.58 69.13 C32.88 54.66, 10.86 42.99, 0.81 31.08 M44.58 69.13 C32.62 59.65, 22.05 49.54, 0.81 31.08 M56.62 69 C42.36 55.47, 28.88 41.26, 0.77 20.45 M56.62 69 C39.1 52.33, 17.93 33.76, 0.77 20.45 M68.66 68.86 C56.15 57.58, 36.41 47.3, 1.5 10.47 M68.66 68.86 C55.34 56.9, 41.28 42.66, 1.5 10.47 M81.46 69.39 C59.69 49.16, 33.13 28.08, 5.99 3.78 M81.46 69.39 C60.03 50.41, 39.41 33.61, 5.99 3.78 M93.5 69.25 C61.79 38.07, 33.76 11.37, 15.01 1.02 M93.5 69.25 C65.29 46.53, 38.35 21.1, 15.01 1.02 M105.54 69.12 C76.12 43.53, 48.89 17.61, 25.54 -0.42 M105.54 69.12 C74.49 44.73, 47.91 18.22, 25.54 -0.42 M118.34 69.64 C94.6 51.29, 69.22 26.04, 37.58 -0.56 M118.34 69.64 C96.06 46.97, 70.78 24.56, 37.58 -0.56 M130.38 69.51 C115.66 52.86, 98.58 39.46, 50.38 -0.03 M130.38 69.51 C106.24 47.1, 81.89 28.85, 50.38 -0.03 M142.42 69.38 C121.7 54.7, 103.36 29.57, 62.42 -0.17 M142.42 69.38 C119.72 51.65, 95.33 31.62, 62.42 -0.17 M154.46 69.24 C140.69 51.61, 120.64 37.27, 75.22 0.36 M154.46 69.24 C139.55 56.03, 121.49 41.06, 75.22 0.36 M161.22 64.52 C141.06 44.38, 117.73 29.29, 87.26 0.22 M161.22 64.52 C145.02 47.56, 123.73 32.62, 87.26 0.22 M164.96 57.17 C142.49 31.52, 114.16 11.84, 99.3 0.09 M164.96 57.17 C141.18 37.61, 116.94 16.57, 99.3 0.09 M164.92 46.54 C143.51 29.59, 128.14 18.12, 112.09 0.61 M164.92 46.54 C150.14 33.74, 133.76 21.45, 112.09 0.61 M165.64 36.56 C151.92 27.65, 136.01 10.32, 124.13 0.48 M165.64 36.56 C149.07 23.06, 133.46 9.13, 124.13 0.48 M165.61 25.93 C154.9 19.88, 152.04 8.38, 136.17 0.35 M165.61 25.93 C156.29 19.22, 149.51 10.17, 136.17 0.35 M165.57 15.3 C157.87 9.08, 156.69 3.54, 148.97 0.87 M165.57 15.3 C161.38 8.89, 153.72 3.5, 148.97 0.87" stroke="#868e96" stroke-width="1" fill="none"></path><path d="M17.6 0 C56.05 -1.89, 88.08 3.84, 147.99 0 M147.99 0 C156.39 2.32, 167.64 5.61, 165.59 17.6 M165.59 17.6 C166.83 29.28, 168.9 38.78, 165.59 52.8 M165.59 52.8 C166.36 60.73, 156.22 72.53, 147.99 70.4 M147.99 70.4 C106.8 75.4, 64.85 72.41, 17.6 70.4 M17.6 70.4 C3.51 68.46, -2.13 64.52, 0 52.8 M0 52.8 C0.87 37.92, -3.89 27.19, 0 17.6 M0 17.6 C-0.89 5.7, 6.64 -0.59, 17.6 0" stroke="#1e1e1e" stroke-width="2.5" fill="none" stroke-dasharray="8 10"></path></g><g stroke-linecap="round" transform="translate(10 10) rotate(0 82.79434380772682 35.19999048112933)"><path d="M17.6 0 C50.36 7.53, 74.41 1.6, 147.99 0 C164.45 4.59, 165.91 10.39, 165.59 17.6 C168.06 32.21, 170.58 45.66, 165.59 52.8 C168.95 61.15, 158.64 66.81, 147.99 70.4 C98.52 65.04, 53.76 66.08, 17.6 70.4 C8.09 71.35, 4.85 66.79, 0 52.8 C0.53 44.46, 0.02 41.01, 0 17.6 C-3.6 6.83, 9.17 -3.21, 17.6 0" stroke="none" stroke-width="0" fill="#b2f2bb"></path><path d="M17.6 0 C45.34 4.39, 72.84 4.84, 147.99 0 M147.99 0 C161.77 -0.25, 163.83 3.81, 165.59 17.6 M165.59 17.6 C169.55 29.71, 166.64 31.68, 165.59 52.8 M165.59 52.8 C162.09 66.66, 160.61 70.12, 147.99 70.4 M147.99 70.4 C104.17 73.83, 56.28 70.99, 17.6 70.4 M17.6 70.4 C3.73 70.39, 3.77 66.48, 0 52.8 M0 52.8 C-3.76 41.09, -1.1 24.93, 0 17.6 M0 17.6 C0.77 5.27, 6.41 -0.52, 17.6 0" stroke="#1e1e1e" stroke-width="2.5" fill="none" stroke-dasharray="8 10"></path></g><g transform="translate(81.79434380772682 32.69999048112933) rotate(0 11 12.5)"><text x="11" y="17.619999999999997" font-family="Excalifont, Segoe UI Emoji" font-size="20px" fill="#1e1e1e" text-anchor="middle" style="white-space: pre;" direction="ltr" dominant-baseline="alphabetic">好</text></g></svg>