<svg version="1.1" xmlns="http://www.w3.org/2000/svg" viewBox="0 0 192.55488372600348 97.29856929390806" width="385.10976745200696" height="194.59713858781612">
  <!-- svg-source:excalidraw -->
  <rect x="0" y="0" width="192.55488372600348" height="97.29856929390806" fill="rgba(0,0,0,0)"></rect><g stroke-linecap="round" transform="translate(16.966196110549845 16.898588331649393) rotate(0 82.79434380772682 35.19999048112933)"><path d="M4.68 4.07 C4.68 4.07, 4.68 4.07, 4.68 4.07 M4.68 4.07 C4.68 4.07, 4.68 4.07, 4.68 4.07 M0.23 21.4 C7.45 16.96, 12.83 11.78, 18.6 0.26 M0.23 21.4 C4.94 14.63, 11.04 6.91, 18.6 0.26 M0.36 33.44 C4.28 20.4, 18.1 18.97, 28.57 0.98 M0.36 33.44 C8.75 23.74, 16.73 16.76, 28.57 0.98 M0.49 45.48 C16.9 27.1, 24.24 13.98, 39.2 0.95 M0.49 45.48 C11.3 32.19, 24.06 17.91, 39.2 0.95 M0.62 57.52 C15.49 38.53, 39.02 16.22, 49.83 0.92 M0.62 57.52 C15.95 43.61, 29.87 24.99, 49.83 0.92 M4.69 65.03 C23.35 42.72, 34 30.44, 60.46 0.88 M4.69 65.03 C19.57 44.51, 38.04 24.85, 60.46 0.88 M11.39 69.53 C34.01 44.85, 58.86 14.83, 71.09 0.85 M11.39 69.53 C29.48 48.35, 47.36 29.19, 71.09 0.85 M22.02 69.49 C47.42 40.43, 70.4 18.6, 81.72 0.81 M22.02 69.49 C42.44 43.5, 59.79 22.88, 81.72 0.81 M32.65 69.46 C48.25 51.27, 68.97 30.68, 91.69 1.53 M32.65 69.46 C52.87 51.3, 67.83 29.17, 91.69 1.53 M43.28 69.42 C58.44 51.86, 68.96 35.92, 102.32 1.5 M43.28 69.42 C60.28 50.79, 77.07 32.1, 102.32 1.5 M53.25 70.14 C70.35 46.25, 89.91 21.93, 112.95 1.46 M53.25 70.14 C75.07 48.91, 95.69 25.76, 112.95 1.46 M63.88 70.11 C85.84 51, 107.24 25.72, 123.58 1.43 M63.88 70.11 C89.52 41.07, 110.96 13.44, 123.58 1.43 M74.51 70.07 C95.96 48.54, 114.18 25.65, 134.21 1.39 M74.51 70.07 C96.75 46.14, 116.47 21.3, 134.21 1.39 M85.14 70.04 C101.02 49.55, 124.84 31.83, 144.84 1.36 M85.14 70.04 C107.49 46.07, 125.65 19.81, 144.84 1.36 M95.77 70 C121.52 44.16, 138.77 16.47, 155.47 1.33 M95.77 70 C115.73 45.46, 137.03 22.33, 155.47 1.33 M106.4 69.97 C117.36 55.01, 130.98 38.99, 162.17 5.82 M106.4 69.97 C116.92 55.17, 129.04 44.34, 162.17 5.82 M116.38 70.69 C133.62 51.43, 155.53 29.98, 165.58 14.09 M116.38 70.69 C136.01 48.07, 151.99 29.04, 165.58 14.09 M127.01 70.66 C133.01 62.13, 143.72 42.82, 165.71 26.13 M127.01 70.66 C138.24 58.09, 152.02 45.28, 165.71 26.13 M137.64 70.62 C145.15 62.88, 155.05 46.56, 165.19 38.92 M137.64 70.62 C144.94 61.35, 152.99 54.07, 165.19 38.92 M148.27 70.59 C151.05 64.18, 159.36 57.48, 165.32 50.96 M148.27 70.59 C152.25 64.78, 157.38 62.1, 165.32 50.96 M4.69 66.25 C4.69 66.25, 4.69 66.25, 4.69 66.25 M4.69 66.25 C4.69 66.25, 4.69 66.25, 4.69 66.25 M19.75 68.74 C11.16 65.24, 10.47 58.31, 0.88 52.34 M19.75 68.74 C12.7 62.14, 6.72 56.17, 0.88 52.34 M31.79 68.61 C23.36 61.46, 20.57 55.26, 0.84 41.71 M31.79 68.61 C23.53 62.72, 14.88 52.39, 0.84 41.71 M44.58 69.13 C30.49 55.55, 14.16 45.36, 0.81 31.08 M44.58 69.13 C34.58 59.55, 20.33 49.41, 0.81 31.08 M56.62 69 C32.95 54.45, 9.39 33.15, 0.77 20.45 M56.62 69 C38.34 49.71, 17.33 33.04, 0.77 20.45 M68.66 68.86 C53.5 53.89, 40.63 40.62, 1.5 10.47 M68.66 68.86 C49.29 53.16, 32.86 35.46, 1.5 10.47 M81.46 69.39 C53.99 46.89, 28.41 21.57, 5.99 3.78 M81.46 69.39 C57.75 48.16, 36.08 29.55, 5.99 3.78 M93.5 69.25 C71.97 50.62, 51.91 32.23, 15.01 1.02 M93.5 69.25 C73.1 54.43, 54.02 35.72, 15.01 1.02 M105.54 69.12 C83.29 51.87, 62.37 29.42, 25.54 -0.42 M105.54 69.12 C83.15 48.56, 63.3 30.29, 25.54 -0.42 M118.34 69.64 C91.61 45.56, 57.35 21.19, 37.58 -0.56 M118.34 69.64 C98.43 47.93, 74.01 29.47, 37.58 -0.56 M130.38 69.51 C115.83 52.02, 99.67 37.22, 50.38 -0.03 M130.38 69.51 C113.46 53.62, 97.12 42.06, 50.38 -0.03 M142.42 69.38 C108.6 46.53, 78.2 16.4, 62.42 -0.17 M142.42 69.38 C118.31 48.17, 99.61 29.67, 62.42 -0.17 M154.46 69.24 C129.83 45.26, 104.72 30.74, 75.22 0.36 M154.46 69.24 C121.19 42.6, 90.32 14.14, 75.22 0.36 M161.22 64.52 C137.47 40.66, 109.05 23.05, 87.26 0.22 M161.22 64.52 C131.13 42.73, 103.7 15.53, 87.26 0.22 M164.96 57.17 C153.7 47.77, 141.02 36.82, 99.3 0.09 M164.96 57.17 C143.94 37.57, 119.56 18.59, 99.3 0.09 M164.92 46.54 C150.68 36.27, 142.53 30.82, 112.09 0.61 M164.92 46.54 C145.04 31, 131.39 13.83, 112.09 0.61 M165.64 36.56 C150.66 26.13, 141.2 18.78, 124.13 0.48 M165.64 36.56 C155.26 27.85, 143.51 15.24, 124.13 0.48 M165.61 25.93 C160.38 14.44, 146.06 8.82, 136.17 0.35 M165.61 25.93 C157.76 19.05, 147.89 12.43, 136.17 0.35 M165.57 15.3 C164.35 10.93, 157.07 8.88, 148.97 0.87 M165.57 15.3 C161.85 13.24, 159.55 8.05, 148.97 0.87" stroke="#868e96" stroke-width="1" fill="none"></path><path d="M17.6 0 C46.29 -1.71, 77.69 -0.16, 147.99 0 M147.99 0 C160.09 -3.27, 163.56 5.94, 165.59 17.6 M165.59 17.6 C163.73 24.23, 162.87 41.32, 165.59 52.8 M165.59 52.8 C164.99 63.51, 162.88 71, 147.99 70.4 M147.99 70.4 C113.27 68.39, 78.43 70.5, 17.6 70.4 M17.6 70.4 C5.64 74.27, -3.24 67.58, 0 52.8 M0 52.8 C-2.38 39.09, 2.47 29.13, 0 17.6 M0 17.6 C0.5 4.62, 6.88 1.37, 17.6 0" stroke="#1e1e1e" stroke-width="2.5" fill="none" stroke-dasharray="8 10"></path></g><g stroke-linecap="round" transform="translate(10 10) rotate(0 82.79434380772682 35.19999048112933)"><path d="M17.6 0 C62.79 1.97, 104.88 -3.63, 147.99 0 C155.23 -2.53, 169.14 8.16, 165.59 17.6 C168.99 32.44, 166.57 43.22, 165.59 52.8 C162.15 63.4, 157.81 70.94, 147.99 70.4 C98.86 73.17, 51.86 70.94, 17.6 70.4 C7.33 64.84, 3.09 59.78, 0 52.8 C-2.82 47.49, 3.46 31.28, 0 17.6 C-4.52 10.1, 10.99 4.53, 17.6 0" stroke="none" stroke-width="0" fill="#b2f2bb"></path><path d="M17.6 0 C56.79 3.23, 89.4 0.49, 147.99 0 M147.99 0 C163.47 1.24, 161.94 5.43, 165.59 17.6 M165.59 17.6 C168.05 33.3, 166.2 45.34, 165.59 52.8 M165.59 52.8 C166.31 67.62, 158.06 71.77, 147.99 70.4 M147.99 70.4 C109 66.22, 66.1 66.62, 17.6 70.4 M17.6 70.4 C8.39 73.19, 1.2 66.71, 0 52.8 M0 52.8 C-1.19 38.21, 1.54 29.8, 0 17.6 M0 17.6 C2.08 7.94, 4.43 2.66, 17.6 0" stroke="#1e1e1e" stroke-width="2.5" fill="none" stroke-dasharray="8 10"></path></g><g transform="translate(81.79434380772682 32.69999048112933) rotate(0 11 12.5)"><text x="11" y="17.619999999999997" font-family="Excalifont, Segoe UI Emoji" font-size="20px" fill="#1e1e1e" text-anchor="middle" style="white-space: pre;" direction="ltr" dominant-baseline="alphabetic">好</text></g></svg>