<svg version="1.1" xmlns="http://www.w3.org/2000/svg" viewBox="0 0 217.5 144.0635113525753" width="435" height="288.1270227051506">
  <!-- svg-source:excalidraw -->
  <rect x="0" y="0" width="217.5" height="144.0635113525753" fill="rgba(0,0,0,0)"></rect><g stroke-linecap="round" transform="translate(10.000000000000057 21.28061661573321) rotate(0 98.74999999999997 56.39144736842104)"><path d="M15.07 27.67 C15.07 27.67, 15.07 27.67, 15.07 27.67 M15.07 27.67 C15.07 27.67, 15.07 27.67, 15.07 27.67 M1.42 55.56 C10.75 43.23, 18.33 32.69, 39.47 11.79 M1.42 55.56 C9.13 45.33, 17.67 36.19, 39.47 11.79 M2.87 66.09 C13.92 53.24, 24.81 39.29, 53.38 7.98 M2.87 66.09 C20.08 48.11, 36.54 28.77, 53.38 7.98 M4.97 75.87 C31.36 48.31, 55.68 21.42, 66.64 4.93 M4.97 75.87 C20.79 56.41, 37.59 37.86, 66.64 4.93 M11.01 81.12 C28.48 61.65, 43.42 44.14, 79.89 1.87 M11.01 81.12 C38.03 50.68, 62.85 21.73, 79.89 1.87 M16.39 87.12 C45.14 54.37, 73.43 19.88, 91.18 1.08 M16.39 87.12 C38.27 62.11, 59.68 37.15, 91.18 1.08 M22.43 92.37 C38.24 73.26, 56.53 52.48, 101.15 1.81 M22.43 92.37 C49.74 60.85, 78.45 27.28, 101.15 1.81 M29.12 96.86 C54.83 64.47, 82.13 36, 111.78 1.77 M29.12 96.86 C50.37 74.24, 70.45 49.94, 111.78 1.77 M37.13 99.85 C63.25 71.49, 91.32 39.98, 121.76 2.49 M37.13 99.85 C68.04 65.3, 96.94 29.88, 121.76 2.49 M44.48 103.59 C72.99 71.65, 96.5 40.57, 130.42 4.72 M44.48 103.59 C78.61 63.81, 113.04 23.98, 130.42 4.72 M52.48 106.57 C81.84 76.15, 109.22 43.14, 139.08 6.95 M52.48 106.57 C74.38 81.57, 94.54 57.09, 139.08 6.95 M61.14 108.8 C92.4 71.75, 126.12 37.52, 147.74 9.18 M61.14 108.8 C88.73 75.28, 117.55 41.69, 147.74 9.18 M70.46 110.28 C89.89 87.02, 106.65 67.04, 156.4 11.41 M70.46 110.28 C91.39 87.52, 111.96 63.38, 156.4 11.41 M80.43 111 C108.14 82.4, 133.45 52.68, 163.75 15.15 M80.43 111 C108.32 80.49, 137.12 47.35, 163.75 15.15 M90.41 111.72 C119.03 75.43, 151.24 43.07, 170.45 19.64 M90.41 111.72 C119.25 78.5, 145.45 47.31, 170.45 19.64 M101.04 111.68 C121.35 88.86, 143.46 63.02, 177.14 24.14 M101.04 111.68 C118.41 92.54, 136.3 71.8, 177.14 24.14 M112.98 110.14 C127.71 92.19, 141.6 78.8, 183.84 28.63 M112.98 110.14 C135.02 85.6, 157.74 58.88, 183.84 28.63 M124.27 109.35 C149.31 80.51, 175.34 51.94, 188.56 35.39 M124.27 109.35 C146.06 82.42, 168.96 57.13, 188.56 35.39 M136.21 107.81 C153.61 88.03, 170.46 67.99, 192.63 42.9 M136.21 107.81 C151.11 88.56, 168.57 71.98, 192.63 42.9 M150.78 103.24 C165.3 85.34, 179.64 71.14, 196.04 51.17 M150.78 103.24 C166.07 85.15, 181.76 67.71, 196.04 51.17 M166.65 97.17 C174.53 88.72, 180.84 77.2, 194.87 64.72 M166.65 97.17 C176.57 86.87, 184.89 75.56, 194.87 64.72" stroke="#868e96" stroke-width="1" fill="none"></path><path d="M81.32 0.81 C93.5 -1.24, 107.69 -0.01, 120.69 1.82 C133.68 3.65, 148.43 7.13, 159.28 11.79 C170.13 16.44, 179.61 23.13, 185.77 29.74 C191.93 36.36, 195.07 43.81, 196.25 51.45 C197.43 59.1, 197.07 68.32, 192.86 75.6 C188.66 82.87, 180.32 89.79, 171.03 95.1 C161.73 100.42, 149.5 104.65, 137.09 107.5 C124.68 110.34, 109.93 112.01, 96.58 112.16 C83.22 112.3, 69.17 111.38, 56.98 108.37 C44.79 105.37, 32.38 99.92, 23.44 94.13 C14.5 88.34, 7.21 81.06, 3.35 73.61 C-0.51 66.15, -1.7 57.07, 0.27 49.4 C2.24 41.73, 8.01 34.21, 15.14 27.58 C22.28 20.95, 31.51 14.07, 43.06 9.64 C54.6 5.21, 76.43 2.38, 84.42 1.01 C92.41 -0.37, 90.54 0.4, 91 1.38 M62.74 3.39 C74.07 -0.1, 88.62 -1.7, 101.93 -1.23 C115.24 -0.77, 130.35 2.87, 142.6 6.19 C154.85 9.5, 167 12.95, 175.42 18.67 C183.85 24.39, 189.79 33.05, 193.16 40.5 C196.52 47.95, 197.19 55.74, 195.63 63.37 C194.07 71.01, 190.6 79.52, 183.78 86.32 C176.97 93.11, 166.06 99.8, 154.75 104.15 C143.44 108.49, 129.03 111.32, 115.92 112.39 C102.8 113.45, 89.1 112.5, 76.07 110.54 C63.04 108.59, 48.42 105.07, 37.72 100.63 C27.02 96.2, 17.93 90.38, 11.88 83.93 C5.83 77.47, 2.19 69.48, 1.44 61.9 C0.68 54.33, 2.96 45.87, 7.34 38.49 C11.73 31.11, 18.61 23.16, 27.76 17.65 C36.91 12.14, 56.34 7.73, 62.22 5.43 C68.11 3.14, 62.56 3.24, 63.07 3.85" stroke="#1e1e1e" stroke-width="2" fill="none"></path></g><g stroke-linecap="round" transform="translate(13.750000000000057 10) rotate(0 95.00000000000003 54.25)"><path d="M89.28 -0.1 C101.51 -1.43, 115.83 0.7, 127.88 3.38 C139.93 6.07, 152.48 10.99, 161.56 16.03 C170.63 21.07, 177.69 26.84, 182.33 33.64 C186.97 40.45, 189.68 49.4, 189.43 56.85 C189.17 64.29, 186.5 71.94, 180.78 78.3 C175.05 84.66, 165.16 90.45, 155.08 95.02 C145 99.58, 132.67 103.38, 120.3 105.69 C107.93 107.99, 93.68 109.82, 80.85 108.85 C68.03 107.88, 54.28 103.9, 43.34 99.86 C32.4 95.82, 22.35 90.6, 15.24 84.6 C8.12 78.61, 2.64 71.22, 0.64 63.91 C-1.36 56.59, -0.11 48.01, 3.25 40.72 C6.61 33.43, 12.85 25.87, 20.78 20.16 C28.72 14.46, 37.44 9.98, 50.87 6.48 C64.31 2.98, 90.75 -0.23, 101.39 -0.84 C112.03 -1.45, 114.68 1.71, 114.69 2.83 M139.12 5.59 C151.03 8.33, 162.15 14.52, 169.99 20.46 C177.83 26.4, 183.06 34.26, 186.16 41.24 C189.25 48.22, 190.57 55.23, 188.55 62.33 C186.52 69.44, 180.96 77.81, 174.03 83.86 C167.09 89.9, 157.49 94.68, 146.91 98.6 C136.34 102.52, 123.05 106.18, 110.57 107.38 C98.08 108.59, 84.47 107.67, 72.02 105.85 C59.57 104.03, 45.95 101.14, 35.88 96.44 C25.81 91.74, 17.35 83.98, 11.63 77.65 C5.9 71.33, 2.57 65.56, 1.54 58.48 C0.51 51.4, 1.14 42.03, 5.44 35.17 C9.74 28.32, 18.23 22.44, 27.36 17.34 C36.49 12.25, 48.2 7.37, 60.21 4.58 C72.21 1.79, 86.54 0.5, 99.38 0.61 C112.23 0.73, 131.05 4.21, 137.27 5.25 C143.48 6.3, 137.27 5.88, 136.67 6.88" stroke="none" stroke-width="0" fill="#b2f2bb"></path><path d="M68.7 2.32 C80.06 -0.28, 96.65 -0.24, 109.58 0.86 C122.52 1.95, 135.7 5.06, 146.31 8.9 C156.91 12.75, 165.98 17.79, 173.19 23.93 C180.4 30.08, 187.19 38.48, 189.55 45.79 C191.92 53.1, 190.7 60.91, 187.38 67.79 C184.07 74.66, 177.7 81.37, 169.64 87.03 C161.59 92.68, 150.42 97.98, 139.04 101.7 C127.66 105.43, 114.31 108.65, 101.37 109.37 C88.44 110.1, 73.7 108.6, 61.43 106.04 C49.15 103.48, 36.93 99.27, 27.72 94 C18.51 88.72, 10.64 81.3, 6.16 74.38 C1.69 67.45, 0.17 59.89, 0.89 52.45 C1.61 45.01, 5.03 36.32, 10.47 29.73 C15.91 23.15, 22.91 17.66, 33.55 12.94 C44.18 8.23, 66.71 3.13, 74.28 1.42 C81.84 -0.28, 78.82 1.93, 78.95 2.72 M50.64 4.99 C60.72 1.21, 76.41 1.14, 89.47 0.64 C102.52 0.13, 117.09 -0.46, 128.98 1.95 C140.87 4.36, 151.91 9.89, 160.79 15.12 C169.68 20.35, 177.23 26.46, 182.29 33.36 C187.35 40.25, 191.36 48.83, 191.13 56.48 C190.89 64.14, 186.77 72.63, 180.86 79.28 C174.94 85.94, 165.46 91.99, 155.63 96.42 C145.8 100.86, 134.3 103.99, 121.87 105.87 C109.44 107.75, 93.92 108.48, 81.04 107.69 C68.16 106.9, 55.22 104.75, 44.58 101.12 C33.94 97.48, 24.18 91.95, 17.22 85.89 C10.26 79.83, 5.18 72.19, 2.82 64.75 C0.47 57.32, 0.05 48.4, 3.08 41.27 C6.11 34.14, 12.93 28.03, 20.99 21.97 C29.06 15.91, 46.36 7.42, 51.46 4.91 C56.57 2.41, 51.16 6.14, 51.62 6.96" stroke="#1e1e1e" stroke-width="2" fill="none"></path></g><g stroke-linecap="round"><g transform="translate(204.39398882254693 65.18924730516892) rotate(0 -0.05950456897988943 13.766547807156485)"><path d="M-0.3 0.54 C-0.3 5.11, -0.27 22.57, -0.22 27.14 M0.55 0.34 C0.48 4.99, -0.57 23.18, -0.7 27.64" stroke="#1e1e1e" stroke-width="2" fill="none"></path></g></g><mask></mask><g stroke-linecap="round"><g transform="translate(14.829248529360541 64.69127570641177) rotate(0 -0.41574579086062613 14.813388915027303)"><path d="M-0.1 -0.39 C-0.16 2.47, -0.6 12.66, -0.66 17.7 C-0.71 22.75, -0.48 27.96, -0.43 29.87 M-0.81 0.6 C-0.9 3.54, -1.02 12.23, -1 16.95 C-0.98 21.67, -0.85 26.85, -0.7 28.92" stroke="#1e1e1e" stroke-width="2" fill="none"></path></g></g><mask></mask><g transform="translate(94.11500549316418 45.95051349335819) rotate(0 14.634994506835938 18.299486506641813)"><text x="0" y="25.794956179762284" font-size="29.279178410626884px" fill="#1e1e1e" text-anchor="start" style="white-space: pre;" direction="ltr" dominant-baseline="alphabetic">按</text></g></svg>