<svg version="1.1" xmlns="http://www.w3.org/2000/svg" viewBox="0 0 217.5 135.06351135257523" width="435" height="270.12702270515047">
  <!-- svg-source:excalidraw -->
  <rect x="0" y="0" width="217.5" height="135.06351135257523" fill="rgba(0,0,0,0)"></rect><g stroke-linecap="round" transform="translate(10 12.280616615733152) rotate(0 98.75 56.39144736842104)"><path d="M16.91 23.97 C16.91 23.97, 16.91 23.97, 16.91 23.97 M16.91 23.97 C16.91 23.97, 16.91 23.97, 16.91 23.97 M5.89 48.85 C14.05 40.63, 22.97 29.08, 36.07 14.13 M5.89 48.85 C14.37 39.14, 23.12 28.09, 36.07 14.13 M6.68 60.13 C17.69 50.98, 23.59 36.8, 50.64 9.57 M6.68 60.13 C19.13 47.59, 30.22 32.78, 50.64 9.57 M6.81 72.17 C28.44 45.77, 51.19 22, 63.23 7.27 M6.81 72.17 C26.31 48.16, 46.63 26.56, 63.23 7.27 M12.19 78.18 C30.33 55.74, 52.5 31.73, 76.49 4.21 M12.19 78.18 C26.27 61.29, 39.58 45.18, 76.49 4.21 M16.92 84.93 C38.31 61.67, 57.17 41.97, 89.09 1.92 M16.92 84.93 C44.69 52.73, 72.31 22.47, 89.09 1.92 M21.65 91.69 C50.13 59.71, 77.78 25.71, 99.06 2.64 M21.65 91.69 C42.74 68.41, 62.09 44.37, 99.06 2.64 M29 95.43 C58.52 60.92, 90.42 23.37, 109.03 3.36 M29 95.43 C59.37 60.49, 90.28 24.7, 109.03 3.36 M36.35 99.17 C57.34 75.96, 74.35 52.59, 119.01 4.08 M36.35 99.17 C67.66 62.83, 99.34 27.09, 119.01 4.08 M43.69 102.91 C71.23 71.57, 101.97 39.26, 129.64 4.04 M43.69 102.91 C76.29 65.27, 110.9 27.42, 129.64 4.04 M51.04 106.65 C77.59 75.38, 101.77 45.79, 137.64 7.03 M51.04 106.65 C78.04 76.68, 103.98 46.1, 137.64 7.03 M60.36 108.12 C90.96 72.37, 126.31 34.19, 145.65 10.01 M60.36 108.12 C91.15 74.69, 119.49 40.99, 145.65 10.01 M69.68 109.6 C96.53 77.21, 121.64 48.75, 154.31 12.24 M69.68 109.6 C91.61 82.78, 114.76 58.15, 154.31 12.24 M79 111.07 C105.29 81.7, 131.13 50.32, 162.32 15.22 M79 111.07 C95.43 90.18, 112.27 71.61, 162.32 15.22 M88.32 112.55 C120.4 76.35, 152.36 40.28, 169.01 19.72 M88.32 112.55 C109.61 89.66, 129.43 66.62, 169.01 19.72 M95.01 117.04 C116.94 93.64, 141.1 67.31, 175.71 24.21 M95.01 117.04 C115.95 93.31, 136.73 69.95, 175.71 24.21 M106.3 116.25 C121.34 97.33, 135.59 80.18, 182.4 28.71 M106.3 116.25 C130.09 90.33, 151.93 63.38, 182.4 28.71 M117.58 115.46 C136.01 96.55, 151.47 78.06, 189.09 33.2 M117.58 115.46 C130.94 100.11, 145.4 83.11, 189.09 33.2 M132.15 110.9 C154.04 87.68, 174.89 61.97, 192.51 41.47 M132.15 110.9 C145.7 94.98, 159.8 77.52, 192.51 41.47 M148.03 104.83 C162.24 85.91, 180.86 67.46, 195.92 49.73 M148.03 104.83 C158.76 91.51, 170.85 77.01, 195.92 49.73 M163.91 98.76 C173.05 86.14, 183.18 73.38, 199.99 57.25 M163.91 98.76 C176.97 84.87, 188.27 70.34, 199.99 57.25" stroke="#868e96" stroke-width="1" fill="none"></path><path d="M127.6 2.78 C140.11 4.21, 153.02 9.29, 163.21 14.32 C173.41 19.36, 183.11 26.3, 188.79 33 C194.46 39.7, 197.04 46.97, 197.24 54.52 C197.43 62.07, 195.17 71.25, 189.95 78.29 C184.73 85.33, 175.68 91.52, 165.89 96.76 C156.1 102, 143.96 107.26, 131.21 109.76 C118.47 112.25, 102.93 112.39, 89.42 111.73 C75.9 111.06, 61.57 109.32, 50.12 105.75 C38.67 102.18, 28.57 96.48, 20.71 90.29 C12.86 84.1, 6.26 76.16, 2.99 68.63 C-0.28 61.1, -1.21 52.52, 1.1 45.09 C3.41 37.66, 8.94 30.25, 16.85 24.05 C24.75 17.84, 36.79 11.89, 48.52 7.87 C60.24 3.86, 73 0.55, 87.19 -0.05 C101.39 -0.64, 124.73 3.17, 133.69 4.3 C142.64 5.42, 141.54 5.74, 140.95 6.7 M70.96 1.4 C82.65 -1.51, 98.24 -0.79, 111.61 0.38 C124.98 1.56, 139.77 4.65, 151.19 8.43 C162.61 12.21, 172.62 16.57, 180.13 23.05 C187.64 29.53, 193.59 39.39, 196.25 47.31 C198.91 55.23, 199.4 63.47, 196.1 70.57 C192.79 77.67, 184.84 84, 176.43 89.93 C168.03 95.86, 157.36 102.46, 145.67 106.16 C133.99 109.86, 119.68 111.57, 106.33 112.13 C92.97 112.68, 77.95 112.06, 65.56 109.48 C53.18 106.9, 41.6 101.73, 32.01 96.66 C22.42 91.58, 13.59 85.75, 8.03 79.02 C2.47 72.29, -1.74 64.08, -1.35 56.27 C-0.97 48.46, 4.48 39.28, 10.34 32.14 C16.2 25.01, 23.74 18.53, 33.81 13.46 C43.88 8.4, 64.52 3.28, 70.76 1.75 C76.99 0.22, 70.64 3.24, 71.22 4.28" stroke="#1e1e1e" stroke-width="2" fill="none"></path></g><g stroke-linecap="round" transform="translate(13.75 10) rotate(0 95 54.25)"><path d="M73.44 1.24 C85.18 -1.16, 100.35 0.5, 113.03 1.89 C125.7 3.27, 138.85 5.71, 149.47 9.54 C160.09 13.38, 170.19 18.71, 176.77 24.89 C183.34 31.06, 187.28 39.16, 188.9 46.58 C190.53 53.99, 189.97 62.23, 186.51 69.4 C183.04 76.56, 176.54 83.96, 168.09 89.57 C159.63 95.17, 147.52 99.84, 135.79 103.04 C124.05 106.24, 110.53 108.47, 97.68 108.76 C84.82 109.05, 70.57 107.74, 58.65 104.78 C46.72 101.81, 35.1 96.32, 26.11 90.98 C17.11 85.63, 9.02 79.36, 4.68 72.69 C0.34 66.01, -1.19 58.46, 0.07 50.92 C1.33 43.39, 6.23 34.15, 12.25 27.48 C18.28 20.81, 24.32 15.42, 36.22 10.9 C48.11 6.37, 73.57 1.86, 83.62 0.34 C93.66 -1.19, 96.19 1, 96.51 1.75 M136.35 4.75 C148 7.11, 159.55 13.99, 168.01 19.82 C176.47 25.66, 183.49 32.82, 187.1 39.77 C190.72 46.71, 191.83 54.23, 189.69 61.48 C187.54 68.74, 181.07 76.98, 174.25 83.3 C167.43 89.63, 159.18 95.34, 148.77 99.43 C138.36 103.53, 124.83 106.5, 111.79 107.86 C98.76 109.21, 83.13 109.36, 70.58 107.58 C58.04 105.79, 46.63 101.67, 36.53 97.13 C26.42 92.6, 16.12 86.83, 9.95 80.36 C3.78 73.9, 0.42 65.96, -0.5 58.35 C-1.42 50.73, 0.06 41.72, 4.42 34.67 C8.78 27.62, 16.72 20.92, 25.66 16.04 C34.6 11.16, 45.77 8.14, 58.07 5.4 C70.37 2.65, 86.21 -0.65, 99.47 -0.44 C112.73 -0.22, 131.39 5.38, 137.64 6.69 C143.9 8.01, 137.99 6.64, 136.99 7.46" stroke="none" stroke-width="0" fill="#b2f2bb"></path><path d="M81.61 1.12 C93.59 -0.64, 109.43 0.87, 121.79 2.67 C134.15 4.47, 145.99 7.31, 155.78 11.94 C165.58 16.57, 174.94 23.85, 180.56 30.45 C186.19 37.05, 189.11 44.19, 189.54 51.56 C189.97 58.92, 188.08 67.84, 183.16 74.64 C178.25 81.45, 169.47 87.31, 160.04 92.4 C150.6 97.49, 138.38 102.55, 126.55 105.18 C114.73 107.82, 101.71 108.81, 89.09 108.21 C76.47 107.61, 62.44 105.11, 50.84 101.57 C39.24 98.03, 27.65 92.7, 19.5 86.98 C11.36 81.27, 4.84 74.34, 1.97 67.28 C-0.9 60.21, -0.21 51.9, 2.29 44.6 C4.79 37.29, 10.05 29.43, 16.96 23.45 C23.87 17.47, 30.74 12.61, 43.75 8.72 C56.77 4.83, 84.56 1.15, 95.06 0.12 C105.57 -0.9, 106.9 1.66, 106.76 2.57 M97.67 -0.09 C110.05 -0.54, 125.33 2.48, 136.95 5.45 C148.57 8.41, 159.12 11.92, 167.4 17.7 C175.67 23.49, 182.72 32.69, 186.57 40.15 C190.42 47.61, 192.39 55.51, 190.51 62.47 C188.62 69.43, 182.26 75.79, 175.25 81.92 C168.24 88.05, 159 95.05, 148.44 99.25 C137.89 103.46, 124.61 105.87, 111.93 107.14 C99.25 108.42, 84.67 108.68, 72.38 106.92 C60.1 105.16, 48.3 100.89, 38.22 96.58 C28.14 92.28, 18.46 87.22, 11.91 81.08 C5.35 74.94, -0.18 67.24, -1.13 59.74 C-2.08 52.23, 1.8 43.21, 6.22 36.05 C10.65 28.89, 16.64 22.19, 25.42 16.76 C34.19 11.34, 46.85 6.14, 58.89 3.5 C70.93 0.86, 91.08 1.28, 97.67 0.93 C104.26 0.58, 98.22 0.86, 98.41 1.41" stroke="#1e1e1e" stroke-width="2" fill="none"></path></g><g stroke-linecap="round"><g transform="translate(204.03656765946926 64.8196175412047) rotate(0 0.11920601255877727 9.451362689138591)"><path d="M-0.15 0.13 C-0.14 3.23, 0.32 15.65, 0.44 18.84 M0.77 -0.28 C0.7 2.88, 0.17 16.39, 0.11 19.5" stroke="#1e1e1e" stroke-width="2" fill="none"></path></g></g><mask></mask><g stroke-linecap="round"><g transform="translate(12.958478735635936 68.62991407552317) rotate(0 0.9271812406105369 8.136735543102219)"><path d="M0.2 -0.07 C0.59 2.68, 1.85 13.93, 2.18 16.63 M-0.36 -0.58 C0 2.01, 1.52 12.97, 1.91 15.85" stroke="#1e1e1e" stroke-width="2" fill="none"></path></g></g><mask></mask><g transform="translate(94.11500549316406 45.95051349335819) rotate(0 14.634994506835938 18.299486506641813)"><text x="0" y="25.794956179762284" font-family="Excalifont, Segoe UI Emoji" font-size="29.279178410626884px" fill="#1e1e1e" text-anchor="start" style="white-space: pre;" direction="ltr" dominant-baseline="alphabetic">按</text></g></svg>