<svg version="1.1" xmlns="http://www.w3.org/2000/svg" viewBox="0 0 226.60829916248417 226.60829916248417" width="453.21659832496834" height="453.21659832496834">
  <!-- svg-source:excalidraw -->

  <defs>
    <style class="style-fonts">

    </style>

  </defs>
  <rect x="0" y="0" width="226.60829916248417" height="226.60829916248417" fill="rgba(0,0,0,0)"></rect><g stroke-linecap="round" transform="translate(10 10) rotate(0 103.30414958124209 103.30414958124209)"><path d="M32 0 C80.2 1.85, 123.93 -1.33, 174.61 0 M174.61 0 C197.96 -0.02, 204.6 13.38, 206.61 32 M206.61 32 C203.91 92.83, 201.53 143.59, 206.61 174.61 M206.61 174.61 C204.87 192.01, 192.31 205.44, 174.61 206.61 M174.61 206.61 C125.76 208.96, 67.24 202.68, 32 206.61 M32 206.61 C8.91 205.83, -1.58 197.71, 0 174.61 M0 174.61 C-2.58 122.68, 1.65 74.66, 0 32 M0 32 C3.35 10.99, 13.74 -0.27, 32 0" stroke="#1e1e1e" stroke-width="4.5" fill="none" stroke-dasharray="8 12"></path></g></svg>